<svg width="56" height="56" fill="none" xmlns="http://www.w3.org/2000/svg"><path fill-rule="evenodd" clip-rule="evenodd" d="M10.531 7.028c.133-.038.227.086.322.161 1.37 1.27 3.222 2 5.09 2.019a7.685 7.685 0 005.325-2.028c.09-.071.194-.2.322-.137.128.08.223.199.332.303 1.142 1.146 2.279 2.288 3.426 3.43.076.076.166.17.128.29-.133.18-.313.317-.474.468a13.344 13.344 0 01-5.217 2.886 13.58 13.58 0 01-7.728-.08 13.446 13.446 0 01-5.26-3.09c-.076-.085-.194-.166-.17-.294.075-.151.218-.255.331-.379 1.147-1.142 2.284-2.288 3.426-3.43a.7.7 0 01.147-.119z" fill="#EA5B08"/><path fill-rule="evenodd" clip-rule="evenodd" d="M30.996 7.052c.1-.086.218.01.29.08 1.217 1.218 2.43 2.436 3.648 3.649.066.07.156.156.123.265-.057.104-.147.19-.223.275a7.687 7.687 0 00-1.952 5.174c0 1.91.744 3.805 2.052 5.198.113.095.194.27.052.384-1.232 1.236-2.474 2.473-3.71 3.71-.095.128-.275.123-.37-.005a13.363 13.363 0 01-2.573-3.795 13.463 13.463 0 01-1.142-6.605c.242-3.104 1.597-6.127 3.805-8.33z" fill="#E9470A"/><path fill-rule="evenodd" clip-rule="evenodd" d="M10.361 16.585c.1-.104.242-.024.317.066 1.11 1.114 2.223 2.223 3.331 3.336.143.152.308.28.427.455.052.137-.076.237-.152.332a7.707 7.707 0 00-2.018 5.269 7.706 7.706 0 002.023 5.14c.062.086.175.162.156.28-.004.086-.085.133-.132.195-1.218 1.213-2.426 2.435-3.644 3.643-.066.071-.166.138-.265.09-.147-.104-.261-.246-.384-.379a13.404 13.404 0 01-2.805-4.81 13.638 13.638 0 01-.204-7.78c.602-2.189 1.753-4.23 3.35-5.837z" fill="#E6035C"/><path fill-rule="evenodd" clip-rule="evenodd" d="M20.088 27.63c.138-.076.251.066.346.142a7.668 7.668 0 005.17 2.014 7.667 7.667 0 005.26-2.042c.094-.11.27-.204.383-.057 1.118 1.109 2.227 2.227 3.34 3.336.152.16.327.298.455.478.057.1-.019.204-.09.275a13.372 13.372 0 01-5.813 3.293c-2.445.654-5.07.607-7.492-.137a13.396 13.396 0 01-5.363-3.184c-.124-.09-.09-.261.018-.346 1.142-1.142 2.289-2.284 3.43-3.43.115-.124.224-.252.356-.342zm14.386 11.822c.53-.142 1.113.256 1.18.8.09.498-.275 1.015-.773 1.1-.52.119-1.08-.275-1.146-.8-.09-.489.255-.996.739-1.1zM9.167 42.167a3.45 3.45 0 012.113.251 3.45 3.45 0 011.758 1.862 3.461 3.461 0 01-.185 2.92 3.449 3.449 0 01-2.336 1.714 3.436 3.436 0 01-4.004-2.487 3.447 3.447 0 01.436-2.758 3.455 3.455 0 012.218-1.502zm.246 1.469a1.902 1.902 0 00-.834.417c-.744.602-.915 1.777-.374 2.563.516.825 1.686 1.128 2.54.659.848-.422 1.274-1.507.938-2.393-.308-.905-1.341-1.478-2.27-1.246zm7.52-1.455c.957-.1 2.028-.213 2.876.346 1.047-.317 2.15-.507 3.245-.388.484.056 1.01.19 1.337.573.317.365.384.872.384 1.34v4.493c.004.118-.02.275-.171.27-.455.01-.91.019-1.36-.005-.133-.01-.147-.16-.142-.265v-4.307c-.005-.251-.029-.526-.194-.725-.162-.19-.422-.251-.659-.26-.564-.02-1.123.084-1.668.203-.01 1.715.005 3.43-.005 5.146.015.123-.07.232-.199.213-.473-.005-.957.038-1.426-.029a1.654 1.654 0 01-.033-.303v-4.245c0-.299-.043-.659-.313-.839-.284-.185-.64-.147-.962-.137-.421.028-.838.109-1.255.184-.052 1.773.014 3.545-.034 5.317-.227.085-.478.047-.715.052-.265-.01-.535.019-.8-.014-.133-.01-.148-.157-.143-.26.005-1.792-.005-3.578.005-5.37-.01-.265.18-.487.417-.578.568-.232 1.194-.326 1.815-.412zm10.694.17c.867-.184 1.763-.283 2.653-.236.46.033.939.104 1.327.365.299.199.488.526.569.872.08.331.066.677.066 1.014v3.677c0 .246.019.497-.033.739-.266.057-.536.028-.806.033-.27-.005-.54.024-.805-.038a1.53 1.53 0 01-.038-.299v-4.245c-.005-.246-.019-.516-.175-.72-.157-.204-.427-.256-.669-.266a6.553 6.553 0 00-1.454.161c-.071.024-.218.024-.194.138-.005 1.54 0 3.075 0 4.615-.005.194.019.389-.024.578-.104.1-.256.067-.384.076-.374-.01-.744.014-1.118-.014-.138-.01-.157-.157-.152-.266v-5.302c-.01-.218.076-.445.266-.559.298-.17.644-.237.97-.322zm16.925.077a9.292 9.292 0 013-.303c.568.047 1.184.156 1.615.563.365.35.44.886.44 1.37v3.496c-.004.275-.027.574-.193.806-.162.218-.436.308-.687.384-.891.246-1.83.28-2.744.227-.611-.047-1.274-.165-1.739-.606-.407-.38-.55-.957-.545-1.493-.005-.54.128-1.123.536-1.502.421-.393 1.009-.535 1.559-.611.71-.071 1.416-.133 2.127-.2-.005-.288.043-.591-.066-.866-.1-.232-.365-.313-.597-.35-.877-.11-1.758.042-2.602.264-.113.024-.232.072-.35.038-.114-.199-.119-.445-.185-.663-.014-.123-.095-.28.005-.384.132-.1.284-.128.426-.17zm1.872 3.378c-.327.043-.702.128-.882.431-.17.313-.18.702-.075 1.038.1.317.412.517.73.573.573.1 1.165.043 1.724-.118.019-.692.005-1.388.005-2.085-.498.043-1 .104-1.502.161zm-9.562-3.52c.422-.053.853-.015 1.28-.024.137-.005.34-.005.374.17.464 1.73.9 3.469 1.364 5.198.08-.014.123-.056.133-.132.384-1.64.768-3.28 1.147-4.919.028-.1.042-.218.137-.28.166-.056.346-.028.516-.037.327.01.659-.02.986.014.161.005.185.209.133.327a2516.89 2516.89 0 00-1.73 5.947c-.033.123-.104.28-.256.27-.687.014-1.37.01-2.056.004-.152.01-.237-.132-.27-.26-.56-1.867-1.114-3.734-1.673-5.606-.061-.222-.19-.45-.085-.672zm-2.971.165c.09-.109.251-.07.374-.08.408.014.82-.029 1.223.028.023.114.038.228.038.346-.005 1.952.004 3.91-.005 5.861.028.157-.123.233-.256.214-.455-.014-.914.038-1.37-.034-.018-.099-.037-.199-.037-.298v-5.553c.01-.161-.014-.327.033-.484z" fill="#E4022C"/></svg>