<svg width="36" height="36" fill="none" xmlns="http://www.w3.org/2000/svg"><path d="M27 27.75a2.247 2.247 0 002.25-2.25A2.247 2.247 0 0027 23.25a2.247 2.247 0 00-2.25 2.25A2.247 2.247 0 0027 27.75zm2.25-13.5H25.5V18h6.69l-2.94-3.75zM9 27.75a2.247 2.247 0 002.25-2.25A2.247 2.247 0 009 23.25a2.247 2.247 0 00-2.25 2.25A2.247 2.247 0 009 27.75zM30 12l4.5 6v7.5h-3c0 2.49-2.01 4.5-4.5 4.5s-4.5-2.01-4.5-4.5h-9c0 2.49-2.01 4.5-4.5 4.5s-4.5-2.01-4.5-4.5h-3V9c0-1.665 1.335-3 3-3h21v6H30zM4.5 9v13.5h1.14A4.52 4.52 0 019 21a4.52 4.52 0 013.36 1.5H22.5V9h-18zM15 10.5l5.25 5.25L15 21v-3.75H7.5v-3H15V10.5z" fill="#CC2830"/></svg>