<svg width="24" height="24" fill="none" xmlns="http://www.w3.org/2000/svg"><g clip-path="url(#clip0)"><path d="M24 12.275c0-.815-.068-1.635-.212-2.438H12.241v4.621h6.613a5.549 5.549 0 01-2.448 3.647v2.998h3.946C22.668 19.013 24 15.926 24 12.275z" fill="#4285F4"/><path d="M12.24 24c3.303 0 6.087-1.062 8.116-2.897l-3.945-2.998c-1.098.732-2.515 1.146-4.166 1.146-3.194 0-5.902-2.112-6.874-4.951h-4.07v3.09C3.378 21.444 7.61 24 12.24 24z" fill="#34A853"/><path d="M5.367 14.3a7.053 7.053 0 010-4.595v-3.09H1.3a11.797 11.797 0 000 10.776L5.367 14.3z" fill="#FBBC04"/><path d="M12.24 4.749a6.727 6.727 0 014.697 1.799l3.496-3.426A11.9 11.9 0 0012.24 0C7.61 0 3.379 2.557 1.3 6.614l4.066 3.09c.967-2.843 3.68-4.955 6.874-4.955z" fill="#EA4335"/></g><defs><clipPath id="clip0"><path fill="#fff" d="M0 0h24v24H0z"/></clipPath></defs></svg>