<svg width="23" height="23" fill="none" xmlns="http://www.w3.org/2000/svg"><path d="M16.653 0H6.347A6.354 6.354 0 000 6.347v10.306C0 20.153 2.847 23 6.347 23h10.306c3.5 0 6.347-2.848 6.347-6.347V6.347C23 2.847 20.153 0 16.653 0zm4.306 16.653a4.311 4.311 0 01-4.306 4.306H6.347a4.311 4.311 0 01-4.306-4.306V6.347a4.311 4.311 0 014.306-4.306h10.306a4.312 4.312 0 014.306 4.306v10.306z" fill="#202020"/><path d="M11.5 5.574A5.933 5.933 0 005.573 11.5a5.933 5.933 0 005.927 5.926 5.933 5.933 0 005.926-5.926A5.933 5.933 0 0011.5 5.574zm0 9.812A3.89 3.89 0 017.614 11.5 3.89 3.89 0 0111.5 7.614a3.89 3.89 0 013.886 3.886 3.89 3.89 0 01-3.886 3.886zm6.175-11.543c-.393 0-.78.16-1.057.438-.279.278-.44.664-.44 1.059 0 .393.161.78.44 1.058.278.278.664.438 1.057.438.395 0 .78-.16 1.059-.438.278-.279.438-.665.438-1.058 0-.395-.16-.781-.438-1.059a1.503 1.503 0 00-1.059-.438z" fill="#202020"/></svg>