<svg width="160" height="36" fill="none" xmlns="http://www.w3.org/2000/svg"><path d="M52.069 36H3.929C1.758 36 0 34.134 0 31.832V4.167C0 1.866 1.758 0 3.928 0H52.07c2.169 0 3.927 1.866 3.927 4.167v27.665c0 2.302-1.758 4.168-3.928 4.168z" fill="url(#paint0_linear)"/><path d="M10.207 9.791v1.765c.73-.726 1.515-1.269 2.363-1.632a6.817 6.817 0 012.715-.544c2.096 0 3.877.789 5.343 2.367 1.466 1.579 2.2 3.603 2.2 6.073 0 2.383-.758 4.375-2.273 5.978-1.516 1.603-3.311 2.405-5.388 2.405a6.727 6.727 0 01-2.584-.493c-.797-.328-1.59-.864-2.377-1.61v7.543H6.207V9.791h4zm4.237 3.295c-1.27 0-2.323.431-3.16 1.293-.836.863-1.254 1.99-1.254 3.383 0 1.421.418 2.571 1.255 3.448.836.877 1.889 1.317 3.159 1.317 1.23 0 2.266-.446 3.107-1.339.84-.891 1.262-2.03 1.262-3.412 0-1.372-.414-2.496-1.24-3.374-.827-.877-1.87-1.316-3.129-1.316zm10.291-3.295h3.454v2.015c.374-.794.87-1.397 1.49-1.809a3.605 3.605 0 012.037-.617c.522 0 1.067.137 1.638.411L32.1 13.247c-.472-.235-.86-.353-1.167-.353-.62 0-1.144.382-1.572 1.147-.428.765-.642 2.264-.642 4.5l.015.779v6.47h-4v-16zm17.19-.411c1.515 0 2.939.377 4.273 1.132 1.334.756 2.374 1.78 3.121 3.073a8.229 8.229 0 011.123 4.191 8.37 8.37 0 01-1.13 4.235 8.126 8.126 0 01-3.078 3.08c-1.298.741-2.73 1.111-4.295 1.111-2.302 0-4.268-.816-5.897-2.448-1.628-1.632-2.442-3.615-2.442-5.947 0-2.5.919-4.583 2.76-6.25 1.613-1.451 3.468-2.177 5.565-2.177zm.066 3.78c-1.252 0-2.295.433-3.128 1.3-.832.867-1.25 1.978-1.25 3.33 0 1.392.413 2.52 1.235 3.382.823.863 1.866 1.294 3.128 1.294s2.312-.436 3.15-1.308c.837-.873 1.256-1.995 1.256-3.368 0-1.373-.412-2.487-1.234-3.346-.823-.856-1.876-1.285-3.157-1.285z" fill="#fff"/><path d="M59.774 9.791h4.03v1.838c.69-.755 1.455-1.317 2.298-1.69a6.723 6.723 0 012.754-.56c1.004 0 1.91.246 2.718.736.807.491 1.458 1.206 1.95 2.148.64-.942 1.426-1.657 2.356-2.148a6.451 6.451 0 013.05-.735c1.143 0 2.148.264 3.015.794s1.489 1.22 1.868 2.073c.379.852.568 2.24.568 4.162v9.382h-4.059v-8.118c0-1.814-.226-3.041-.678-3.683-.453-.642-1.133-.964-2.037-.964a3.1 3.1 0 00-1.853.589c-.546.392-.952.934-1.217 1.624-.266.691-.399 1.802-.399 3.332v7.22h-4.06v-7.749c0-1.431-.106-2.468-.317-3.11-.213-.641-.53-1.119-.955-1.433-.424-.313-.936-.47-1.54-.47a3.04 3.04 0 00-1.827.595c-.548.397-.957.954-1.228 1.669-.271.716-.407 1.843-.407 3.382v7.117h-4.03v-16zm39.452 0h4.029V25.79h-4.03V24.1c-.786.744-1.574 1.28-2.365 1.61a6.636 6.636 0 01-2.573.491c-2.073 0-3.867-.801-5.382-2.404-1.513-1.603-2.27-3.596-2.27-5.978 0-2.47.732-4.494 2.197-6.073 1.465-1.578 3.244-2.368 5.337-2.368.963 0 1.867.182 2.713.545.845.363 1.626.907 2.345 1.632V9.791h-.001zm-4.237 3.295c-1.246 0-2.28.438-3.104 1.317-.824.877-1.236 2.002-1.236 3.375 0 1.382.42 2.52 1.258 3.411.839.893 1.87 1.339 3.097 1.339 1.265 0 2.314-.439 3.148-1.317.834-.877 1.25-2.026 1.25-3.448 0-1.392-.416-2.519-1.25-3.382-.834-.864-1.888-1.295-3.163-1.295zm11.879-3.295h3.454v2.015c.375-.794.871-1.397 1.491-1.809a3.605 3.605 0 012.037-.617c.522 0 1.067.137 1.638.411l-1.254 3.456c-.472-.235-.861-.353-1.167-.353-.62 0-1.144.382-1.572 1.147-.428.765-.642 2.264-.642 4.5l.015.779v6.47h-4.001v-16h.001zm10.311-6.175h4.03v12.772l5.933-6.595h5.061l-6.918 7.667 7.745 8.33h-5.002l-6.819-7.373v7.374h-4.03V3.616zm32.477 15.337H136.71c.187 1.138.686 2.041 1.498 2.713.812.67 1.847 1.007 3.107 1.007 1.505 0 2.8-.524 3.882-1.574l3.395 1.588c-.846 1.197-1.86 2.08-3.041 2.654-1.181.574-2.583.86-4.207.86-2.519 0-4.571-.791-6.155-2.375-1.584-1.583-2.377-3.566-2.377-5.948 0-2.441.79-4.468 2.37-6.08 1.58-1.613 3.559-2.42 5.941-2.42 2.528 0 4.586.807 6.169 2.42 1.585 1.612 2.377 3.742 2.377 6.389l-.013.766zm-4.03-3.162c-.267-.891-.791-1.617-1.575-2.176-.784-.56-1.693-.838-2.728-.838-1.123 0-2.109.314-2.957.941-.532.392-1.025 1.083-1.478 2.073h8.738zm7.296-11.896h4.03v5.896h2.391v3.456h-2.391V25.79h-4.03V13.247h-2.067V9.79h2.067V3.895z" fill="#000"/><defs><linearGradient id="paint0_linear" x1="0" y1="18" x2="55.997" y2="18" gradientUnits="userSpaceOnUse"><stop stop-color="#EF4136"/><stop offset="1" stop-color="#BE1E2D"/></linearGradient></defs></svg>