<svg width="44" height="78" fill="none" xmlns="http://www.w3.org/2000/svg"><g opacity=".54" stroke="#202020"><path d="M43.49 6.079V71.92a5.577 5.577 0 01-5.58 5.58H6.08A5.58 5.58 0 01.5 71.91V6.08A5.577 5.577 0 016.08.5h31.84a5.562 5.562 0 015.57 5.579zm-.99.001a4.584 4.584 0 00-4.58-4.58H6.08A4.584 4.584 0 001.5 6.08v65.84a4.57 4.57 0 004.58 4.57h31.84a4.584 4.584 0 004.58-4.58V6.08z" fill="#202020"/><path d="M10.547 4.948l-.046-.448H6.75A2.258 2.258 0 004.5 6.75v64.5a2.258 2.258 0 002.25 2.25h30.5a2.258 2.258 0 002.25-2.25V6.75a2.258 2.258 0 00-2.25-2.25h-3.753l-.045.45c-.103 1.04-.4 1.628-.873 1.982-.497.373-1.293.568-2.579.568H14c-1.281 0-2.074-.195-2.572-.568-.474-.355-.773-.944-.88-1.984zM6.75 3.5h4.75V4c0 .467.006.864.052 1.181.046.319.142.637.386.881.244.244.562.34.88.386.318.046.715.052 1.182.052h16c.467 0 .864-.006 1.181-.052.319-.046.637-.142.881-.386.244-.244.34-.562.386-.88.046-.318.052-.715.052-1.182v-.5h4.75a3.251 3.251 0 013.25 3.25v64.5a3.251 3.251 0 01-3.25 3.25H6.75a3.251 3.251 0 01-3.25-3.25V6.75A3.251 3.251 0 016.75 3.5z" fill="#202020"/><path d="M18 4h8m2 0h2" stroke-width="2" stroke-miterlimit="10"/></g></svg>