<svg width="57" height="69" fill="none" xmlns="http://www.w3.org/2000/svg"><path fill-rule="evenodd" clip-rule="evenodd" d="M31.45 6.004C36.045.03 42.43 0 42.43 0s.95 5.618-3.613 11.03c-4.873 5.779-10.412 4.833-10.412 4.833s-1.04-4.545 3.045-9.859zm-2.461 13.794c2.364 0 6.749-3.206 12.459-3.206 9.827 0 13.694 6.901 13.694 6.901S47.58 27.31 47.58 36.566c0 10.443 9.42 14.042 9.42 14.042s-6.585 18.29-15.479 18.29c-4.085 0-7.26-2.717-11.565-2.717-4.387 0-8.739 2.818-11.574 2.818C10.261 69 0 51.65 0 37.704c0-13.721 8.685-20.919 16.83-20.919 5.297-.001 9.407 3.013 12.159 3.013z" fill="#999"/></svg>