<svg width="161" height="24" fill="none" xmlns="http://www.w3.org/2000/svg"><g clip-path="url(#clip0)" fill-rule="evenodd" clip-rule="evenodd" fill="#15299D"><path d="M87.87 10.89s-1.56-.96-2.52-1.34c0 0-2.98-1.38-3.58-2.04 0 0-1.16-1.1-.48-2.37 0 0 .28-.83 1.51-.83 0 0 1.6.09 1.6 1.4v1.86h5.73l-.01-2.73S90.56.37 83.37.17c0 0-5.66-.37-7.28 2.68 0 0-.64.68-.64 3.05v1.7s-.07 1.97.94 3.25c0 0 .57.83 1.97 1.75 0 0 2.85 1.54 4.56 2.41 0 0 1.73.99 1.5 2.55 0 0-.14 1.61-1.81 1.54 0 0-1.53-.07-1.53-1.65V15.6h-6.11v2.69s-.17 5.15 7.68 5.15c0 0 7.5.15 7.85-5.29v-2.19c.02.02.28-3.31-2.63-5.07zM58.51.81l-1.92 12.03h-.45L54.31.92h-9.58l-.48 21.79h5.67l.07-16.42h.45l3 16.41h5.97l2.97-16.4h.39l.14 16.41h5.7L68 .81h-9.49zM24.76.9l-3.78 21.78h6.11l2.23-16.89h.5l2.24 16.89h6.1L34.39.9h-9.63zm128.1 9.69v3.21h1.57v3.45c0 1.69-1.44 1.72-1.44 1.72-1.75 0-1.69-1.6-1.69-1.6V5.44c0-1.23 1.55-1.29 1.55-1.29 1.49 0 1.5 1.47 1.5 1.47v1.81h5.75c.19-3.54-.52-4.4-.52-4.4-1.43-3.2-6.82-3.03-6.82-3.03-8.29 0-7.37 6.36-7.37 6.36V17.9c.18 5.96 8.34 5.36 8.48 5.35 3.63-.4 4.73-1.56 4.73-1.56 1.01-.75 1.27-1.79 1.27-1.79.29-.61.36-2.53.36-2.53v-6.78h-7.37zm-19.06 3.55h-.24L127.72.82h-6.98v21.89h5.68l-.34-13.32h.26l6.04 13.32h6.77V.81h-5.75l.4 13.33zm-26.92 3.11s.08 1.8-1.58 1.8c0 0-1.75.09-1.75-1.75L103.53.83H97.3v16.34s-.64 6.18 8.09 6.18c0 0 7.58.09 7.58-5.9V.83h-6.09v16.42zm-94-6.36s-1.56-.96-2.52-1.34c0 0-2.98-1.38-3.57-2.04 0 0-1.16-1.1-.48-2.37 0 0 .28-.83 1.51-.83 0 0 1.6.09 1.6 1.4v1.86h5.74l-.01-2.73S15.59.37 8.4.17c0 0-.54-.03-1.34.01 0 0-4.36.23-5.91 2.62-.03.02-.04.03-.05.05 0 0-.64.68-.64 3.05v1.7s-.07 1.97.94 3.25c0 0 .57.83 1.97 1.75 0 0 2.85 1.53 4.56 2.41 0 0 1.73.99 1.5 2.56 0 0-.14 1.61-1.81 1.54 0 0-1.53-.07-1.53-1.65v-1.85H0v2.69s-.17 5.15 7.68 5.15c0 0 7.5.15 7.85-5.29v-2.19c0 .01.27-3.32-2.65-5.08z"/></g><defs><clipPath id="clip0"><path fill="#fff" d="M0 0h160.24v23.46H0z"/></clipPath></defs></svg>