<svg width="95" height="95" fill="none" xmlns="http://www.w3.org/2000/svg"><g clip-path="url(#clip0)"><path d="M3.503 85.754h7.756V79.57h3.47v15.262h-3.47v-6.373H3.503v6.373H.023V79.569h3.48v6.185zm17.55 2.959c0 2.692.855 3.82 3.729 3.82 2.885 0 3.714-1.128 3.714-3.82V79.57h3.484v9.227c0 1.959-.237 3.294-.975 4.102-1.356 1.49-3.338 2.106-6.22 2.106-2.873 0-4.885-.613-6.24-2.106-.766-.823-.946-2.166-.946-4.102V79.57h3.458v9.144m17.885-.234h4.942l-2.517-5.87-2.425 5.87zm4.4-8.911L50.4 94.835h-3.872l-1.522-3.629H37.82l-1.477 3.629h-3.684l6.995-15.266h3.688zm8.637 0L55.806 91.3l3.224-11.73h4.102l3.714 11.73 3.564-11.73h3.57l-5.11 15.262h-4.265l-3.53-11.393-3.085 11.393h-4.24L48.243 79.57h3.737zm26.695 6.204h9.62v2.654h-9.646c.03 2.753 1.198 3.75 3.929 3.75h5.718v2.654h-5.877c-2 0-3.548-.143-5.16-1.339-1.703-1.248-2.531-3.248-2.531-6.012 0-5.4 2.467-7.915 7.782-7.915h5.786v2.659h-5.718c-2.501.003-3.767 1.154-3.903 3.549zm16.322-6.204h-3.635v15.266h3.635V79.569z" fill="#231F20"/><path d="M40.882 55.776s.162-.132.075-.346h.008C29.803 31.073 14.54 12.603 14.54 12.603s-8.306 7.87-7.714 15.759c.316 5.97 4.806 9.505 4.806 9.505 7.251 7.057 24.786 15.957 28.858 17.976.053.027.267.09.392-.067zm-2.709 6.034c-.075-.263-.384-.263-.384-.263v-.011L8.603 62.555c3.164 5.644 8.502 10.02 14.054 8.678 3.835-.955 12.51-7.001 15.38-9.054l-.007-.008c.218-.199.143-.36.143-.36zm.43-2.624c.146-.226-.102-.429-.102-.429l.007-.003C25.686 50.109.832 36.848.832 36.848c-2.26 6.986.788 12.607.788 12.607 3.164 6.693 9.21 8.716 9.21 8.716 2.79 1.15 5.582 1.226 5.582 1.226.44.075 17.369.007 21.904-.012.189 0 .287-.199.287-.199zM40.55 0c-1.273.117-4.701.899-4.701.899C28.119 2.89 26.292 9.9 26.292 9.9c-1.412 4.41.038 9.253.038 9.253 2.577 11.434 15.275 30.227 18.006 34.171.188.2.342.128.342.128.298-.079.275-.36.275-.36C49.153 11.13 40.55 0 40.55 0zm9.666 53.44c.279.114.425-.157.425-.157h.008c2.791-4.05 15.406-22.737 17.983-34.13 0 0 1.386-5.523.037-9.253 0 0-1.906-7.118-9.65-9.001 0 0-2.226-.564-4.588-.899 0 0-8.649 11.133-4.445 53.121h.008c.03.27.222.32.222.32zm6.912 8.122s-.264.034-.331.226c0 0-.06.263.109.391v.008c2.791 2.004 11.263 7.918 15.346 9.072 0 0 7.545 2.56 14.107-8.681l-29.231-1.023v.007zm36.99-24.782S69.306 50.087 56.473 58.727l.007.012s-.233.15-.158.42c0 0 .124.226.305.226v.004c4.588.004 21.983.019 22.424-.053 0 0 2.249-.093 5.017-1.158 0 0 6.19-1.962 9.403-8.978 0-.004 2.866-5.727.647-12.42zM54.137 55.776s.196.15.388.034c4.181-2.072 21.584-10.92 28.794-17.943 0 0 4.558-3.659 4.799-9.543.52-8.163-7.7-15.724-7.7-15.724S65.204 31 54.043 55.313h.007s-.128.282.087.463z" fill="#9A080D"/></g><defs><clipPath id="clip0"><path fill="#fff" d="M0 0h95v95H0z"/></clipPath></defs></svg>